<svg width="174" height="23" viewBox="0 0 174 23" fill="none" xmlns="http://www.w3.org/2000/svg">
<path d="M34.4862 17H36.7002V7.946L40.7142 13.49H41.0382L45.0162 7.892V17H47.2122V4.4H45.1242L41.0202 10.286L36.7182 4.4H34.4862V17ZM49.0908 17H51.3228L52.6368 13.778H58.0188L59.3328 17H61.6908L56.3628 4.364H54.4188L49.0908 17ZM55.3368 7.226L57.1728 11.708H53.4828L55.3368 7.226ZM68.636 13.652C68.636 14.606 67.844 15.128 66.8 15.128C65.828 15.128 64.64 14.66 63.902 13.706L62.642 15.218C63.254 16.496 65.144 17.198 66.764 17.198C69.122 17.198 70.976 15.758 70.976 13.634C70.976 9.44 65.27 10.268 65.27 7.658C65.27 6.83 65.936 6.272 67.034 6.272C68.042 6.272 68.654 6.614 69.266 7.208L70.454 5.552C69.698 4.724 68.402 4.202 66.854 4.202C64.406 4.202 62.93 5.786 62.93 7.676C62.93 11.78 68.636 11.168 68.636 13.652ZM71.9613 6.47H76.0473V17H78.2613V6.47H82.3473V4.4H71.9613V6.47ZM84.2675 17H91.7375V14.93H86.4815V11.672H91.0175V9.602H86.4815V6.47H91.5575V4.4H84.2675V17ZM96.835 17V12.284H98.383L101.857 17H104.539L100.597 11.852C101.641 11.492 103.027 10.412 103.027 8.252C103.027 6.074 101.893 4.364 98.455 4.364C98.095 4.364 95.323 4.4 94.621 4.4V17H96.835ZM98.347 6.434C100.147 6.434 100.687 7.28 100.687 8.27C100.687 9.566 99.553 10.214 98.275 10.214H96.835V6.47C97.429 6.452 97.933 6.434 98.347 6.434ZM111.527 13.652C111.527 14.606 110.735 15.128 109.691 15.128C108.719 15.128 107.531 14.66 106.793 13.706L105.533 15.218C106.145 16.496 108.035 17.198 109.655 17.198C112.013 17.198 113.867 15.758 113.867 13.634C113.867 9.44 108.161 10.268 108.161 7.658C108.161 6.83 108.827 6.272 109.925 6.272C110.933 6.272 111.545 6.614 112.157 7.208L113.345 5.552C112.589 4.724 111.293 4.202 109.745 4.202C107.297 4.202 105.821 5.786 105.821 7.676C105.821 11.78 111.527 11.168 111.527 13.652ZM125.904 4.4H123.51L120.414 9.674L117.282 4.4H114.762L119.208 11.744V17H121.422V11.744L125.904 4.4ZM132.796 13.652C132.796 14.606 132.004 15.128 130.96 15.128C129.988 15.128 128.8 14.66 128.062 13.706L126.802 15.218C127.414 16.496 129.304 17.198 130.924 17.198C133.282 17.198 135.136 15.758 135.136 13.634C135.136 9.44 129.43 10.268 129.43 7.658C129.43 6.83 130.096 6.272 131.194 6.272C132.202 6.272 132.814 6.614 133.426 7.208L134.614 5.552C133.858 4.724 132.562 4.202 131.014 4.202C128.566 4.202 127.09 5.786 127.09 7.676C127.09 11.78 132.796 11.168 132.796 13.652ZM136.121 6.47H140.207V17H142.421V6.47H146.507V4.4H136.121V6.47ZM148.428 17H155.898V14.93H150.642V11.672H155.178V9.602H150.642V6.47H155.718V4.4H148.428V17ZM158.781 17H160.995V7.946L165.009 13.49H165.333L169.311 7.892V17H171.507V4.4H169.419L165.315 10.286L161.013 4.4H158.781V17Z" fill="white"/>
<g clip-path="url(#clip0_251_1535)">
<path d="M13 21.5C12.337 21.5 11.7011 21.2366 11.2322 20.7678C10.7634 20.2989 10.5 19.663 10.5 19V16.54L7.3 13.34H3C2.33696 13.34 1.70107 13.0766 1.23223 12.6078C0.763392 12.1389 0.5 11.503 0.5 10.84C0.5 10.177 0.763392 9.54107 1.23223 9.07223C1.70107 8.60339 2.33696 8.34 3 8.34H5.83V3C5.83 2.6717 5.89466 2.34661 6.0203 2.04329C6.14594 1.73998 6.33009 1.46438 6.56223 1.23223C6.79438 1.00009 7.06998 0.815938 7.37329 0.690301C7.67661 0.564664 8.0017 0.5 8.33 0.5C8.6583 0.5 8.98339 0.564664 9.28671 0.690301C9.59002 0.815938 9.86562 1.00009 10.0978 1.23223C10.3299 1.46438 10.5141 1.73998 10.6397 2.04329C10.7653 2.34661 10.83 2.6717 10.83 3V9.8L13 12L15.17 9.8V3C15.17 2.33696 15.4334 1.70107 15.9022 1.23223C16.3711 0.763392 17.007 0.5 17.67 0.5C18.333 0.5 18.9689 0.763392 19.4378 1.23223C19.9066 1.70107 20.17 2.33696 20.17 3V8.33H23C23.663 8.33 24.2989 8.59339 24.7678 9.06223C25.2366 9.53107 25.5 10.167 25.5 10.83C25.5 11.493 25.2366 12.1289 24.7678 12.5978C24.2989 13.0666 23.663 13.33 23 13.33H18.7L15.5 16.53V19C15.5 19.663 15.2366 20.2989 14.7678 20.7678C14.2989 21.2366 13.663 21.5 13 21.5Z" fill="#FF6100"/>
</g>
<defs>
<clipPath id="clip0_251_1535">
<rect width="26" height="22" fill="white"/>
</clipPath>
</defs>
</svg>
